<svg width="18" height="18" viewBox="0 0 18 18" fill="none" xmlns="http://www.w3.org/2000/svg">
<path d="M8.57145 6.25003C7.28936 6.25003 6.25002 7.28937 6.25002 8.57146C6.25002 9.85355 7.28936 10.8929 8.57145 10.8929C9.85354 10.8929 10.8929 9.85355 10.8929 8.57146C10.8929 7.28937 9.85354 6.25003 8.57145 6.25003Z" fill="#29CDB5"/>
<path fill-rule="evenodd" clip-rule="evenodd" d="M4.8354 2.20108C7.29834 1.92581 9.84456 1.92581 12.3075 2.20108C13.6635 2.35263 14.7572 3.42105 14.9164 4.7818C15.2109 7.29966 15.2109 9.84326 14.9164 12.3611C14.7572 13.7219 13.6635 14.7903 12.3075 14.9418C9.84456 15.2171 7.29835 15.2171 4.8354 14.9418C3.4794 14.7903 2.38569 13.7219 2.22654 12.3611C1.93205 9.84326 1.93205 7.29966 2.22654 4.7818C2.38569 3.42105 3.4794 2.35263 4.8354 2.20108ZM12.1429 4.28575C11.7484 4.28575 11.4286 4.60554 11.4286 5.00003C11.4286 5.39452 11.7484 5.71432 12.1429 5.71432C12.5374 5.71432 12.8572 5.39452 12.8572 5.00003C12.8572 4.60554 12.5374 4.28575 12.1429 4.28575ZM5.17859 8.57146C5.17859 6.69764 6.69762 5.1786 8.57145 5.1786C10.4453 5.1786 11.9643 6.69764 11.9643 8.57146C11.9643 10.4453 10.4453 11.9643 8.57145 11.9643C6.69762 11.9643 5.17859 10.4453 5.17859 8.57146Z" fill="#29CDB5"/>
</svg>
