<svg width="18" height="19" viewBox="0 0 18 19" fill="none" xmlns="http://www.w3.org/2000/svg">
<g clip-path="url(#clip0_41_624)">
<path d="M13.1699 16.625C13.05 16.6255 12.9317 16.5956 12.8249 16.5379L8.99995 14.4242L5.17494 16.5379C5.05074 16.6069 4.9107 16.6376 4.77075 16.6267C4.6308 16.6159 4.49655 16.5637 4.38327 16.4763C4.26998 16.3889 4.1822 16.2697 4.12991 16.1322C4.07761 15.9948 4.0629 15.8446 4.08744 15.6987L4.83744 11.2417L1.74744 8.075C1.65104 7.97345 1.58265 7.8461 1.54961 7.70663C1.51658 7.56716 1.52015 7.42082 1.55994 7.28333C1.60341 7.14263 1.68338 7.01761 1.79076 6.92246C1.89814 6.8273 2.02864 6.76582 2.16744 6.745L6.44244 6.08792L8.32495 2.02667C8.38636 1.89282 8.48225 1.77994 8.60163 1.70095C8.72101 1.62197 8.85905 1.58008 8.99995 1.58008C9.14084 1.58008 9.27888 1.62197 9.39826 1.70095C9.51764 1.77994 9.61353 1.89282 9.67494 2.02667L11.5799 6.08L15.8549 6.73708C15.9938 6.75791 16.1243 6.81939 16.2316 6.91454C16.339 7.0097 16.419 7.13472 16.4624 7.27542C16.5022 7.41291 16.5058 7.55924 16.4728 7.69871C16.4397 7.83819 16.3714 7.96553 16.2749 8.06708L13.1849 11.2337L13.9349 15.6908C13.9617 15.8393 13.9477 15.9927 13.8945 16.1329C13.8414 16.2732 13.7513 16.3945 13.6349 16.4825C13.4991 16.583 13.3356 16.6331 13.1699 16.625V16.625Z" fill="#69B99D"/>
</g>
<defs>
<clipPath id="clip0_41_624">
<rect width="18" height="19" fill="white"/>
</clipPath>
</defs>
</svg>
