<svg width="27" height="27" viewBox="0 0 27 27" fill="none" xmlns="http://www.w3.org/2000/svg">
<path fill-rule="evenodd" clip-rule="evenodd" d="M7.56 0H19.12C23.64 0 26.6667 3.17333 26.6667 7.89333V18.788C26.6667 23.4933 23.64 26.6667 19.12 26.6667H7.56C3.04 26.6667 0 23.4933 0 18.788V7.89333C0 3.17333 3.04 0 7.56 0ZM12.5733 17.32L18.9067 10.9867C19.36 10.5333 19.36 9.8 18.9067 9.33333C18.4533 8.88 17.7067 8.88 17.2533 9.33333L11.7467 14.84L9.41334 12.5067C8.96 12.0533 8.21334 12.0533 7.76 12.5067C7.30667 12.96 7.30667 13.6933 7.76 14.16L10.9333 17.32C11.16 17.5467 11.4533 17.6533 11.7467 17.6533C12.0533 17.6533 12.3467 17.5467 12.5733 17.32Z" fill="#69B99D"/>
</svg>
