<svg width="15" height="11" viewBox="0 0 15 11" fill="none" xmlns="http://www.w3.org/2000/svg">
<path fill-rule="evenodd" clip-rule="evenodd" d="M3.64519 0.139804C6.02781 -0.0466014 8.42135 -0.0466012 10.804 0.139804L12.4045 0.265019C13.296 0.334765 14.0253 1.0029 14.1726 1.88488C14.5413 4.09167 14.5413 6.34434 14.1726 8.55112C14.0253 9.4331 13.296 10.1012 12.4045 10.171L10.804 10.2962C8.42135 10.4826 6.02781 10.4826 3.64519 10.2962L2.04469 10.171C1.15321 10.1012 0.423904 9.4331 0.276539 8.55112C-0.0921798 6.34434 -0.0921798 4.09167 0.276539 1.88488C0.423904 1.0029 1.15321 0.334765 2.04469 0.265019L3.64519 0.139804ZM5.79599 6.98239V3.45362C5.79599 3.28705 5.97769 3.18417 6.12052 3.26987L9.06117 5.03426C9.19988 5.11749 9.19988 5.31852 9.06117 5.40175L6.12052 7.16614C5.97769 7.25184 5.79599 7.14896 5.79599 6.98239Z" fill="#29CDB5"/>
</svg>
